<svg width="10" height="10" viewBox="0 0 10 10" fill="none" xmlns="http://www.w3.org/2000/svg">
<path d="M8.7513 5.93132C8.7513 5.93132 8.77211 6.26431 8.43913 6.26431H2.75754C2.57024 6.26431 2.48699 6.01457 2.61186 5.8897L3.77732 4.72425C3.90219 4.59938 3.90219 4.41207 3.77732 4.2872L3.34027 3.85016C3.2154 3.72529 3.0281 3.72529 2.90323 3.85016L0.0936524 6.65973C-0.0312175 6.7846 -0.0312175 6.9719 0.0936524 7.09677L2.92404 9.90635C3.04891 10.0312 3.23621 10.0312 3.36108 9.90635L3.79813 9.4693C3.923 9.34443 3.923 9.15713 3.79813 9.03226L2.63267 7.86681C2.5078 7.72112 2.59105 7.51301 2.77836 7.51301H9.68783C9.83351 7.51301 10 7.34651 10 7.18002V0.312175C10 0.166493 9.85432 0 9.68783 0H9.06348C8.89698 0 8.7513 0.166493 8.7513 0.312175V5.93132Z" fill="black"/>
</svg>
