<svg width="180" height="34" viewBox="0 0 180 34" fill="none" xmlns="http://www.w3.org/2000/svg">
<path d="M36.2938 18.9124V24.2556H40.2315C42.4126 24.2556 43.6546 23.2594 43.6546 21.6293C43.6546 19.9088 42.3824 18.9124 40.2315 18.9124H36.2938ZM36.2938 10.2793V15.411H39.9287C41.8673 15.411 43.0184 14.4148 43.0184 12.8451C43.0184 11.2755 41.8976 10.2793 39.9287 10.2793H36.2938ZM31.75 6.71734H39.8075C44.7149 6.71734 47.5621 8.77005 47.5621 12.3017C47.5621 14.9582 45.987 16.4674 43.5636 16.9806C46.3809 17.343 48.3195 18.8221 48.3195 21.8407C48.3195 25.5233 45.4116 27.8477 40.2013 27.8477H31.75V6.71734Z" fill="#1D1D1B"/>
<path d="M59.8914 12.3315H64.1625V27.8473H60.3759L59.9822 25.9756C58.9825 27.1831 57.6195 28.0283 55.4081 28.0283C52.1973 28.0283 49.2289 26.4286 49.2289 20.9347V12.3315H53.5V20.3611C53.5 23.1382 54.4085 24.4967 56.5289 24.4967C58.6495 24.4967 59.8914 22.957 59.8914 20.0896V12.3315Z" fill="#1D1D1B"/>
<path d="M65.9195 12.3319H70.2209V27.8477H65.9195V12.3319ZM65.5862 8.28693C65.5862 6.89839 66.6767 5.87214 68.0701 5.87214C69.4635 5.87214 70.5541 6.89839 70.5541 8.28693C70.5541 9.64526 69.4635 10.6716 68.0701 10.6716C66.6767 10.6716 65.5862 9.64526 65.5862 8.28693Z" fill="#1D1D1B"/>
<path d="M71.9476 6.71724H76.2186V27.8477H71.9476V6.71724Z" fill="#1D1D1B"/>
<path d="M89.3349 20.1196C89.3349 17.4632 87.881 15.6218 85.5486 15.6218C83.2161 15.6218 81.7318 17.4331 81.7318 20.0895C81.7318 22.7457 83.2161 24.557 85.5486 24.557C87.881 24.557 89.3349 22.7457 89.3349 20.1196ZM89.2744 6.71686H93.5456V27.8473H89.8197L89.3955 25.704C88.3658 27.0322 86.851 28.0283 84.6095 28.0283C80.4293 28.0283 77.3698 24.9795 77.3698 20.0593C77.3698 15.2596 80.4293 12.1503 84.5791 12.1503C86.7301 12.1503 88.2749 12.9956 89.2744 14.2634V6.71686Z" fill="#1D1D1B"/>
<path d="M100.18 18.9124V24.2556H104.118C106.299 24.2556 107.541 23.2594 107.541 21.6293C107.541 19.9088 106.268 18.9124 104.118 18.9124H100.18ZM100.18 10.2793V15.411H103.815C105.754 15.411 106.905 14.4148 106.905 12.8451C106.905 11.2755 105.784 10.2793 103.815 10.2793H100.18ZM95.6361 6.71734H103.694C108.601 6.71734 111.448 8.77005 111.448 12.3017C111.448 14.9582 109.873 16.4674 107.45 16.9806C110.267 17.343 112.206 18.8221 112.206 21.8407C112.206 25.5233 109.298 27.8477 104.087 27.8477H95.6361V6.71734Z" fill="#1D1D1B"/>
<path d="M123.778 12.3315H128.049V27.8473H124.262L123.868 25.9756C122.869 27.1831 121.506 28.0283 119.294 28.0283C116.084 28.0283 113.115 26.4286 113.115 20.9347V12.3315H117.386V20.3611C117.386 23.1382 118.295 24.4967 120.415 24.4967C122.536 24.4967 123.778 22.957 123.778 20.0896V12.3315Z" fill="#1D1D1B"/>
<path d="M141.165 20.1196C141.165 17.4632 139.711 15.6218 137.378 15.6218C135.046 15.6218 133.562 17.4331 133.562 20.0895C133.562 22.7457 135.046 24.557 137.378 24.557C139.711 24.557 141.165 22.7457 141.165 20.1196ZM141.104 6.71686H145.375V27.8473H141.65L141.226 25.704C140.196 27.0322 138.681 28.0283 136.44 28.0283C132.259 28.0283 129.2 24.9795 129.2 20.0593C129.2 15.2596 132.259 12.1503 136.409 12.1503C138.56 12.1503 140.105 12.9956 141.104 14.2634V6.71686Z" fill="#1D1D1B"/>
<path d="M158.492 20.1196C158.492 17.4632 157.038 15.6218 154.706 15.6218C152.374 15.6218 150.889 17.4331 150.889 20.0895C150.889 22.7457 152.374 24.557 154.706 24.557C157.038 24.557 158.492 22.7457 158.492 20.1196ZM158.432 6.71686H162.703V27.8473H158.977L158.553 25.704C157.523 27.0322 156.008 28.0283 153.767 28.0283C149.586 28.0283 146.527 24.9795 146.527 20.0593C146.527 15.2596 149.586 12.1503 153.737 12.1503C155.887 12.1503 157.432 12.9956 158.432 14.2634V6.71686Z" fill="#1D1D1B"/>
<path d="M163.4 12.3317H167.944L171.73 23.38L175.426 12.3317H180L173.093 30.051C172.124 32.6167 171.336 33.8848 168.913 33.8848H164.763V30.2927H167.126C168.217 30.2927 168.58 30.0209 169.004 28.9643L169.398 27.9381L163.4 12.3317Z" fill="#1D1D1B"/>
<path d="M2.97847 22.4402L11.3939 27.2818L19.8091 22.4402V12.757L11.4126 7.92607L6.24355 10.9716V5.0344L2.97847 6.96409V22.4402ZM11.3939 30.709L0 24.1539V5.2143L9.22202 -0.000284195V5.69867L11.3751 4.47711L22.7874 11.0434V24.1539L11.3939 30.709Z" fill="#FF5C42"/>
</svg>
