<svg width="89" height="62" viewBox="0 0 89 62" fill="none" xmlns="http://www.w3.org/2000/svg">
<path d="M42.1923 24.0769L28.3462 17.1538L0.65387 31L14.5 37.923L42.1923 24.0769Z" fill="#664C33" stroke="#4D3926" stroke-miterlimit="1"/>
<path d="M42.1923 24.0769L28.3462 17.1538V5.61536L42.1923 12.5384V24.0769Z" fill="#B3845A" stroke="#4D3926" stroke-miterlimit="1"/>
<path d="M28.3462 17.1538L0.65387 31V19.4615L28.3462 5.61536V17.1538Z" fill="#99714D" stroke="#4D3926" stroke-miterlimit="1"/>
<path d="M14.5 37.9231L0.65387 31V19.4615L14.5 26.3846V37.9231Z" fill="#FFBD80" stroke="#4D3926" stroke-miterlimit="1"/>
<path d="M14.5 37.9231L42.1923 24.0769V12.5385L14.5 26.3846V37.9231Z" fill="#CC9766" stroke="#4D3926" stroke-miterlimit="1"/>
<path d="M42.1923 12.5384L28.3462 5.61536L0.65387 19.4615L14.5 26.3846L42.1923 12.5384Z" fill="#E6AA73" stroke="#4D3926" stroke-miterlimit="1"/>
<path d="M88.3462 47.1538L42.1923 24.0769L14.5 37.9231L60.6538 61L88.3462 47.1538Z" fill="#4D4D4D" stroke="#4D4D4D" stroke-miterlimit="1"/>
<path d="M88.3462 47.1538L42.1923 24.0769V1L88.3462 24.0769V47.1538Z" fill="#999999" stroke="#4D4D4D" stroke-miterlimit="1"/>
<path d="M42.1923 24.0769L14.5 37.9231V14.8462L42.1923 1V24.0769Z" fill="#999999" stroke="#4D4D4D" stroke-miterlimit="1"/>
<path d="M60.6538 61L14.5 37.9231V14.8462L60.6538 37.9231V61Z" fill="#CCCCCC" stroke="#4D4D4D" stroke-miterlimit="1"/>
<path d="M60.6538 61L88.3461 47.1538V24.0769L60.6538 37.9231V61Z" fill="#CCCCCC" stroke="#4D4D4D" stroke-miterlimit="1"/>
<path d="M88.3462 24.0769L42.1923 1L14.5 14.8462L60.6538 37.9231L88.3462 24.0769Z" fill="white" stroke="#4D4D4D" stroke-miterlimit="1"/>
</svg>
